<mxfile host="65bd71144e">
    <diagram id="QjIuPqYrj1B6ECJPbBiX" name="Page-1">
        <mxGraphModel dx="3550" dy="1665" grid="1" gridSize="10" guides="1" tooltips="1" connect="1" arrows="1" fold="1" page="1" pageScale="1" pageWidth="827" pageHeight="1169" math="0" shadow="1">
            <root>
                <mxCell id="0"/>
                <mxCell id="1" parent="0"/>
                <mxCell id="75" value="" style="edgeStyle=none;html=1;strokeWidth=3;" edge="1" parent="1" source="23" target="24">
                    <mxGeometry relative="1" as="geometry"/>
                </mxCell>
                <mxCell id="23" value="ui.py (интерфейс пользователя)" style="rounded=1;whiteSpace=wrap;html=1;shadow=1;labelBackgroundColor=none;labelBorderColor=none;fontSize=13;strokeWidth=2;" parent="1" vertex="1">
                    <mxGeometry x="-1247.5" y="-930" width="230" height="100" as="geometry"/>
                </mxCell>
                <mxCell id="72" value="" style="edgeStyle=none;html=1;strokeWidth=3;" edge="1" parent="1" source="24" target="25">
                    <mxGeometry relative="1" as="geometry"/>
                </mxCell>
                <mxCell id="24" value="&lt;font style=&quot;font-size: 16px&quot;&gt;controller.py&lt;/font&gt;" style="rounded=1;whiteSpace=wrap;html=1;shadow=1;labelBackgroundColor=none;labelBorderColor=none;fontSize=13;strokeWidth=3;perimeterSpacing=1;" parent="1" vertex="1">
                    <mxGeometry x="-1560" y="-930" width="215" height="90" as="geometry"/>
                </mxCell>
                <mxCell id="25" value="&lt;font style=&quot;font-size: 15px&quot;&gt;main.py (запуск приложения)&lt;/font&gt;" style="rounded=1;whiteSpace=wrap;html=1;shadow=1;labelBackgroundColor=none;labelBorderColor=none;fontSize=13;strokeWidth=3;perimeterSpacing=2;" parent="1" vertex="1">
                    <mxGeometry x="-1552.5" y="-1110" width="200" height="100" as="geometry"/>
                </mxCell>
                <mxCell id="76" value="" style="edgeStyle=none;html=1;strokeWidth=3;" edge="1" parent="1" source="28" target="24">
                    <mxGeometry relative="1" as="geometry"/>
                </mxCell>
                <mxCell id="28" value="&lt;font style=&quot;font-size: 15px&quot;&gt;calculator.py (калькулятор комплексных и рациональных чисел)&lt;/font&gt;" style="rounded=1;whiteSpace=wrap;html=1;shadow=1;labelBackgroundColor=none;labelBorderColor=none;fontSize=13;strokeWidth=3;" parent="1" vertex="1">
                    <mxGeometry x="-1577.5" y="-750" width="250" height="90" as="geometry"/>
                </mxCell>
                <mxCell id="35" value="" style="edgeStyle=none;html=1;" parent="1" target="34" edge="1">
                    <mxGeometry relative="1" as="geometry"/>
                </mxCell>
                <mxCell id="73" value="" style="edgeStyle=none;html=1;strokeWidth=3;" edge="1" parent="1" source="30" target="24">
                    <mxGeometry relative="1" as="geometry"/>
                </mxCell>
                <mxCell id="30" value="&lt;font style=&quot;font-size: 15px&quot;&gt;logs.py (логирование данных)&lt;/font&gt;" style="rounded=1;whiteSpace=wrap;html=1;shadow=1;labelBackgroundColor=none;labelBorderColor=none;fontSize=13;strokeWidth=4;" parent="1" vertex="1">
                    <mxGeometry x="-1844" y="-930" width="190" height="90" as="geometry"/>
                </mxCell>
                <mxCell id="74" value="" style="edgeStyle=none;html=1;strokeWidth=3;" edge="1" parent="1" source="34" target="23">
                    <mxGeometry relative="1" as="geometry"/>
                </mxCell>
                <mxCell id="34" value="&lt;font style=&quot;font-size: 14px&quot;&gt;check_number.py (проверка ввода)&lt;/font&gt;" style="whiteSpace=wrap;html=1;fontSize=13;rounded=1;shadow=1;labelBackgroundColor=none;labelBorderColor=none;strokeWidth=3;" parent="1" vertex="1">
                    <mxGeometry x="-1228.75" y="-743.5" width="192.5" height="77" as="geometry"/>
                </mxCell>
            </root>
        </mxGraphModel>
    </diagram>
</mxfile>